<svg width="32" height="48" xmlns="http://www.w3.org/2000/svg" xmlns:xlink="http://www.w3.org/1999/xlink" xml:space="preserve" overflow="hidden"><defs><clipPath id="clip0"><rect x="378" y="564" width="32" height="48"/></clipPath></defs><g clip-path="url(#clip0)" transform="translate(-378 -564)"><path d="M401.396 587.653C401.352 587.931 401.247 588.196 401.086 588.427 400.926 588.659 400.715 588.851 400.47 588.99 399.977 589.309 399.545 589.468 399.108 589.627 398.177 589.949 397.197 590.27 396.161 590.643 395.069 591.016 394.089 591.388 393.215 591.659 392.125 592.031 391.089 592.353 390.104 592.725 389.363 593.042 388.667 593.456 388.034 593.954 387.446 594.488 386.932 595.098 386.507 595.77 386.07 596.515 385.795 597.477 385.795 598.597 385.795 600.842 386.34 602.549 387.433 603.616 388.523 604.74 390.544 605.272 393.539 605.272 396.593 605.272 398.665 604.686 399.761 603.511 400.848 602.336 401.393 600.683 401.393 598.549L401.393 587.653 401.396 587.653ZM393.542 564C398.889 564 402.815 565.016 405.322 567.098 407.831 569.129 409.086 571.741 409.086 574.837L409.086 601.215C409.086 602.282 408.87 603.457 408.489 604.737 408.104 606.023 407.342 607.195 406.142 608.259 404.998 609.331 403.417 610.239 401.398 610.933 399.38 611.627 396.763 612 393.544 612 390.33 612 387.708 611.627 385.692 610.933 383.677 610.239 382.093 609.331 380.949 608.259 379.885 607.3 379.078 606.089 378.604 604.737 378.219 603.459 378 602.284 378 601.217L378 597.001C378 594.756 378.599 592.674 379.8 590.856 381 588.99 382.689 587.709 384.872 586.907 385.962 586.534 387.217 586.162 388.634 585.681 390.053 585.198 391.359 584.717 392.67 584.293 393.981 583.863 395.125 583.434 396.105 583.059 396.696 582.822 397.296 582.609 397.904 582.421L398.887 581.94C399.272 581.727 399.65 581.406 400.033 580.979 400.414 580.555 400.74 580.074 401.015 579.539 401.306 578.96 401.456 578.32 401.452 577.672L401.452 575.963C401.456 575.336 401.325 574.716 401.067 574.145 400.851 573.502 400.414 572.916 399.815 572.384 399.216 571.849 398.396 571.422 397.416 571.098 396.434 570.782 395.128 570.62 393.652 570.62 390.598 570.62 388.579 571.212 387.489 572.435 386.564 573.505 386.019 574.839 385.911 576.333 385.911 576.654 385.638 576.868 385.309 576.868L378.658 576.976C378.5 576.976 378.348 576.915 378.236 576.804 378.123 576.693 378.059 576.542 378.057 576.384L378.057 574.842C378.057 573.343 378.332 571.955 378.931 570.62 379.532 569.283 380.46 568.165 381.712 567.201 382.967 566.242 384.605 565.442 386.566 564.908 388.477 564.265 390.821 564 393.547 564L393.542 564Z" fill="#9070D5" fill-rule="evenodd"/></g></svg>